<?xml version="1.0" standalone="no"?>
<!DOCTYPE svg PUBLIC "-//W3C//DTD SVG 20010904//EN"
 "http://www.w3.org/TR/2001/REC-SVG-20010904/DTD/svg10.dtd">
<svg version="1.0" xmlns="http://www.w3.org/2000/svg"
 width="200.000000pt" height="200.000000pt" viewBox="0 0 200.000000 200.000000"
 preserveAspectRatio="xMidYMid meet">
<metadata>
Created by potrace 1.14, written by Peter Selinger 2001-2017
</metadata>
<g transform="translate(0.000000,200.000000) scale(0.100000,-0.100000)"
fill="#000000" stroke="none">
<path d="M970 1616 l0 -105 -136 -203 c-76 -112 -238 -354 -362 -538 -124
-184 -231 -342 -238 -350 -12 -12 -14 -3 -14 62 0 68 -2 76 -21 81 -11 3 -22
0 -25 -7 -3 -7 -3 -70 -2 -142 l3 -129 271 -3 271 -2 31 67 c75 165 195 504
235 664 l23 90 23 -98 c36 -148 164 -523 228 -665 l26 -58 273 0 274 0 0 139
c0 77 -4 142 -9 145 -5 4 -16 3 -25 0 -13 -5 -16 -22 -16 -82 0 -65 -2 -74
-14 -62 -7 8 -120 175 -251 370 -131 195 -294 437 -362 538 l-123 183 0 104 0
105 -30 0 -30 0 0 -104z"/>
</g>
</svg>
